<svg xmlns="http://www.w3.org/2000/svg" viewBox="0 0 646.53 418.86"><g id="freepik--background-complete--inject-445"><g><g><g><polygon points="599.72 383.04 496.56 404.74 485.35 332.62 588.52 310.92 599.72 383.04" style="fill:#c7c7c7;"></polygon><polygon points="520.65 317.49 484.19 325.16 485.35 332.62 523.9 324.52 520.65 317.49" style="fill:#c7c7c7;"></polygon></g><g><polygon points="632.57 351.37 526.32 331.78 540.28 261.98 646.53 281.57 632.57 351.37" style="fill:#ebebeb;"></polygon><polygon points="629.02 346.21 531.59 328.24 543.82 267.14 641.25 285.11 629.02 346.21" style="fill:#fff;"></polygon><path d="M628.61,302.53c-1.14,5.75-6.82,9.54-12.67,8.46-5.85-1.08-9.67-6.62-8.53-12.37,1.14-5.75,6.82-9.54,12.67-8.46,5.85,1.08,9.67,6.62,8.53,12.37Z" style="fill:#dbdbdb;"></path><polygon points="598.75 340.73 531.64 328.35 574.08 289.86 598.75 340.73" style="fill:#ebebeb;"></polygon><polygon points="625.05 345.6 569.65 335.38 603.14 311.39 625.05 345.6" style="fill:#dbdbdb;"></polygon></g><g><polygon points="599.65 383.05 496.48 404.75 474.4 339.3 577.57 317.6 599.65 383.05" style="fill:#dbdbdb;"></polygon><polygon points="508.57 324.86 472.11 332.52 474.4 339.3 512.95 331.19 508.57 324.86" style="fill:#dbdbdb;"></polygon></g></g><g><polygon points="96.13 105.02 15.66 117.22 0 13.91 59.75 4.86 83.46 21.4 96.13 105.02" style="fill:#ebebeb;"></polygon><polygon points="59.75 4.86 83.46 21.4 62.74 24.54 59.75 4.86" style="fill:#dbdbdb;"></polygon><rect x="10.42" y="26.65" width="45.25" height="2.68" transform="translate(69.92 50.72) rotate(171.38)" style="fill:#dbdbdb;"></rect><rect x="11.44" y="33.35" width="45.25" height="2.68" transform="translate(72.94 63.88) rotate(171.38)" style="fill:#dbdbdb;"></rect><rect x="12.45" y="40.04" width="45.25" height="2.68" transform="translate(75.96 77.04) rotate(171.38)" style="fill:#dbdbdb;"></rect><rect x="13.35" y="45.16" width="66.31" height="2.68" transform="translate(99.45 85.51) rotate(171.38)" style="fill:#dbdbdb;"></rect><rect x="14.36" y="51.86" width="66.31" height="2.68" transform="translate(102.47 98.67) rotate(171.38)" style="fill:#dbdbdb;"></rect><rect x="15.38" y="58.55" width="66.31" height="2.68" transform="translate(105.49 111.84) rotate(171.38)" style="fill:#dbdbdb;"></rect><rect x="16.39" y="65.25" width="66.31" height="2.68" transform="translate(108.51 125) rotate(171.38)" style="fill:#dbdbdb;"></rect><rect x="17.41" y="71.94" width="66.31" height="2.68" transform="translate(111.53 138.16) rotate(171.38)" style="fill:#dbdbdb;"></rect><rect x="18.42" y="78.64" width="66.31" height="2.68" transform="translate(114.55 151.33) rotate(171.38)" style="fill:#dbdbdb;"></rect><rect x="19.44" y="85.33" width="66.31" height="2.68" transform="translate(117.57 164.49) rotate(171.38)" style="fill:#dbdbdb;"></rect><rect x="20.45" y="92.03" width="66.31" height="2.68" transform="translate(120.59 177.65) rotate(171.38)" style="fill:#dbdbdb;"></rect><rect x="21.47" y="98.72" width="66.31" height="2.68" transform="translate(123.62 190.82) rotate(171.38)" style="fill:#dbdbdb;"></rect></g></g></g><g id="freepik--Floor--inject-445"><polygon points="12.7 417.65 90.34 417.41 167.98 417.32 323.26 417.15 478.54 417.32 556.18 417.41 633.82 417.65 556.18 417.9 478.54 417.99 323.26 418.15 167.98 417.98 90.34 417.9 12.7 417.65" style="fill:#263238;"></polygon></g><g id="freepik--Device--inject-445"><g><rect x="143.76" y="403.38" width="176.75" height="14.77" style="fill:#c7c7c7;"></rect><g><polygon points="299.46 403.39 164.8 403.39 168.23 377.76 168.4 376.55 168.71 374.15 168.87 372.94 169.2 370.53 169.24 370.16 169.36 369.32 169.68 366.92 169.84 365.71 172.24 347.8 292.03 347.8 294.29 364.69 294.4 365.51 294.78 368.31 294.88 369.12 295.02 370.16 295.26 371.92 295.36 372.73 295.74 375.55 295.85 376.35 299.46 403.39" style="fill:#dbdbdb;"></polygon><polygon points="295.02 370.16 169.84 365.71 172.24 347.8 292.03 347.8 295.02 370.16" style="fill:#c7c7c7;"></polygon></g><rect x="15.35" y="48.71" width="443.54" height="308.39" style="fill:#263238;"></rect><rect x="15.35" y="311.6" width="443.54" height="45.49" style="fill:#dbdbdb;"></rect><path d="M239.51,331.29c0,4.15-3.36,7.51-7.51,7.51s-7.51-3.36-7.51-7.51,3.36-7.51,7.51-7.51,7.51,3.36,7.51,7.51Z" style="fill:#37474f;"></path><rect x="36.28" y="68.76" width="401.69" height="221.45" style="fill:#fff;"></rect><g><rect x="36.28" y="68.76" width="401.69" height="221.45" style="fill:#fff;"></rect><g><rect x="36.28" y="68.76" width="401.69" height="10.02" style="fill:#455a64;"></rect><g><path d="M43.64,73.77c0,.94-.76,1.69-1.69,1.69s-1.69-.76-1.69-1.69,.76-1.69,1.69-1.69,1.69,.76,1.69,1.69Z" style="fill:#c7c7c7;"></path><path d="M50.56,73.77c0,.94-.76,1.69-1.69,1.69s-1.69-.76-1.69-1.69,.76-1.69,1.69-1.69,1.69,.76,1.69,1.69Z" style="fill:#fff;"></path><path d="M57.48,73.77c0,.94-.76,1.69-1.69,1.69s-1.69-.76-1.69-1.69,.76-1.69,1.69-1.69,1.69,.76,1.69,1.69Z" style="fill:#FFC727;"></path></g></g><g><rect x="430.67" y="78.78" width="7.3" height="211.43" style="fill:#dbdbdb;"></rect><path d="M434.31,165.6h0c-1.04,0-1.89-.84-1.89-1.89V82.13c0-1.04,.84-1.89,1.89-1.89h0c1.04,0,1.89,.84,1.89,1.89v81.58c0,1.04-.84,1.89-1.89,1.89Z" style="fill:#a6a6a6;"></path></g><g><g><g><g><rect x="61.16" y="105.21" width="65.26" height="47.3" style="fill:#FFC727;"></rect><polygon points="84.21 100.31 61.16 100.31 61.16 105.21 85.54 105.21 84.21 100.31" style="fill:#FFC727;"></polygon></g><rect x="63.42" y="102.23" width="18.86" height="2.85" style="fill:#fff;"></rect></g><g><polygon points="126.41 152.51 61.15 152.51 60.68 108.14 125.94 108.14 126.41 152.51" style="fill:#FFC727;"></polygon><polygon points="126.41 152.51 61.15 152.51 60.68 108.14 125.94 108.14 126.41 152.51" style="fill:#fff; opacity: .4;"></polygon><polygon points="83.69 103.65 60.63 103.65 60.68 108.14 85.06 108.14 83.69 103.65" style="fill:#FFC727;"></polygon><polygon points="83.69 103.65 60.63 103.65 60.68 108.14 85.06 108.14 83.69 103.65" style="fill:#fff; opacity: .4;"></polygon></g></g><g><g><g><rect x="153.76" y="105.21" width="65.26" height="47.3" style="fill:#37474f;"></rect><polygon points="176.82 100.31 153.76 100.31 153.76 105.21 178.14 105.21 176.82 100.31" style="fill:#37474f;"></polygon></g><rect x="156.03" y="102.23" width="18.86" height="2.85" style="fill:#fff;"></rect></g><g><polygon points="219.02 152.51 153.76 152.51 153.29 108.14 218.54 108.14 219.02 152.51" style="fill:#455a64;"></polygon><polygon points="176.3 103.65 153.24 103.65 153.29 108.14 177.67 108.14 176.3 103.65" style="fill:#455a64;"></polygon></g></g><g><g><g><rect x="338.98" y="105.21" width="65.26" height="47.3" style="fill:#37474f;"></rect><polygon points="362.03 100.31 338.98 100.31 338.98 105.21 363.36 105.21 362.03 100.31" style="fill:#37474f;"></polygon></g><rect x="341.24" y="102.23" width="18.86" height="2.85" style="fill:#fff;"></rect></g><g><polygon points="404.23 152.51 338.98 152.51 338.5 108.14 403.76 108.14 404.23 152.51" style="fill:#455a64;"></polygon><polygon points="361.51 103.65 338.45 103.65 338.5 108.14 362.89 108.14 361.51 103.65" style="fill:#455a64;"></polygon></g></g><g><g><g><rect x="61.16" y="173.81" width="65.26" height="47.3" style="fill:#37474f;"></rect><polygon points="84.21 168.91 61.16 168.91 61.16 173.81 85.54 173.81 84.21 168.91" style="fill:#37474f;"></polygon></g><rect x="63.42" y="170.82" width="18.86" height="2.85" style="fill:#fff;"></rect></g><g><polygon points="126.41 221.11 61.15 221.11 60.68 176.74 125.94 176.74 126.41 221.11" style="fill:#455a64;"></polygon><polygon points="83.69 172.25 60.63 172.25 60.68 176.74 85.06 176.74 83.69 172.25" style="fill:#455a64;"></polygon></g></g><g><g><g><rect x="246.37" y="173.81" width="65.26" height="47.3" style="fill:#37474f;"></rect><polygon points="269.43 168.91 246.37 168.91 246.37 173.81 270.75 173.81 269.43 168.91" style="fill:#37474f;"></polygon></g><rect x="248.63" y="170.82" width="18.86" height="2.85" style="fill:#fff;"></rect></g><g><polygon points="311.63 221.11 246.37 221.11 245.9 176.74 311.15 176.74 311.63 221.11" style="fill:#455a64;"></polygon><polygon points="268.9 172.25 245.85 172.25 245.9 176.74 270.28 176.74 268.9 172.25" style="fill:#455a64;"></polygon></g></g><g><g><g><rect x="153.76" y="173.81" width="65.26" height="47.3" style="fill:#FFC727;"></rect><polygon points="176.82 168.91 153.76 168.91 153.76 173.81 178.14 173.81 176.82 168.91" style="fill:#FFC727;"></polygon></g><rect x="156.03" y="170.82" width="18.86" height="2.85" style="fill:#fff;"></rect></g><g><polygon points="219.02 221.11 153.76 221.11 153.29 176.74 218.54 176.74 219.02 221.11" style="fill:#FFC727;"></polygon><polygon points="219.02 221.11 153.76 221.11 153.29 176.74 218.54 176.74 219.02 221.11" style="fill:#fff; opacity: .4;"></polygon><polygon points="176.3 172.25 153.24 172.25 153.29 176.74 177.67 176.74 176.3 172.25" style="fill:#FFC727;"></polygon><polygon points="176.3 172.25 153.24 172.25 153.29 176.74 177.67 176.74 176.3 172.25" style="fill:#fff; opacity: .4;"></polygon></g></g><g><g><rect x="276.74" y="116.15" width="4" height="20.52" style="fill:#c7c7c7;"></rect><rect x="276.74" y="116.15" width="4" height="20.52" transform="translate(152.32 405.15) rotate(-90)" style="fill:#c7c7c7;"></rect></g><g><polyline points="307.69 149.37 307.69 151.37 305.69 151.37" style="fill: none; stroke: #c7c7c7; stroke-miterlimit: 10; stroke-width: .5px;"></polyline><line x1="301.54" y1="151.37" x2="253.86" y2="151.37" style="fill: none; stroke: #c7c7c7; stroke-dasharray: 0 0 4.15 4.15; stroke-miterlimit: 10; stroke-width: .5px;"></line><polyline points="251.78 151.37 249.78 151.37 249.78 149.37" style="fill: none; stroke: #c7c7c7; stroke-miterlimit: 10; stroke-width: .5px;"></polyline><line x1="249.78" y1="145.19" x2="249.78" y2="105.55" style="fill: none; stroke: #c7c7c7; stroke-dasharray: 0 0 4.17 4.17; stroke-miterlimit: 10; stroke-width: .5px;"></line><polyline points="249.78 103.46 249.78 101.46 251.78 101.46" style="fill: none; stroke: #c7c7c7; stroke-miterlimit: 10; stroke-width: .5px;"></polyline><line x1="255.93" y1="101.46" x2="303.62" y2="101.46" style="fill: none; stroke: #c7c7c7; stroke-dasharray: 0 0 4.15 4.15; stroke-miterlimit: 10; stroke-width: .5px;"></line><polyline points="305.69 101.46 307.69 101.46 307.69 103.46" style="fill: none; stroke: #c7c7c7; stroke-miterlimit: 10; stroke-width: .5px;"></polyline><line x1="307.69" y1="107.63" x2="307.69" y2="147.28" style="fill: none; stroke: #c7c7c7; stroke-dasharray: 0 0 4.17 4.17; stroke-miterlimit: 10; stroke-width: .5px;"></line></g></g></g></g></g></g><g id="freepik--hard-drive--inject-445"><g><g><polygon points="509.4 251.19 345.99 251.19 337.38 242.58 337.38 9.93 345.99 1.32 509.4 1.32 518.01 9.93 518.01 242.58 509.4 251.19" style="fill:#a6a6a6;"></polygon><path d="M491.2,152.47l6.52,6.52v45.87l-26.1,26.1h-88.43l-25.58-25.58v-46.85l6.35-6.35c-11.03-13.88-17.6-31.45-17.6-50.55,0-14.04,3.56-27.25,9.81-38.77v-16.75l25.91-25.91h45.62l-.15,.09h.15c44.93,0,81.34,36.41,81.34,81.34,0,19.23-6.67,36.91-17.84,50.83Z" style="opacity: .2;"></path><g><g><circle cx="427.7" cy="101.63" r="71.58" style="fill:#FFC727;"></circle><circle cx="427.7" cy="101.63" r="71.58" style="fill:#fff; opacity: .6;"></circle></g><g style="opacity: .5;"><path d="M453.29,34.78l-25.6,66.85-6.36-71.28c2.09-.2,4.22-.29,6.36-.29,9.02,0,17.66,1.67,25.6,4.72Z" style="fill:#fff;"></path><path d="M427.69,101.63l-33.69,63.16c-10.8-5.76-19.94-14.22-26.54-24.48l60.23-38.68Z" style="fill:#fff;"></path><path d="M474.45,47.44l-46.76,54.19,37.47-60.99c3.29,2.01,6.39,4.29,9.3,6.79Z" style="fill:#fff;"></path><path d="M429.95,173.17c-.74,.03-1.5,.04-2.26,.04-2.42,0-4.82-.12-7.18-.36l7.18-71.22,2.26,71.54Z" style="fill:#fff;"></path></g></g><polygon points="488.42 177.61 488.42 200.92 469.12 220.22 447.25 220.22 447.25 193.83 463.06 177.61 488.42 177.61" style="fill:#FFC727;"></polygon><g><polygon points="366.29 1.33 366.29 23.77 359.83 30.23 337.39 30.23 337.39 9.93 345.99 1.33 366.29 1.33" style="fill:#dbdbdb;"></polygon><path d="M357.39,15.78c0,3.07-2.49,5.56-5.56,5.56s-5.56-2.49-5.56-5.56,2.49-5.56,5.56-5.56,5.56,2.49,5.56,5.56Z" style="fill:#a6a6a6;"></path></g><g><polygon points="489.11 1.33 489.11 23.77 495.56 30.23 518.01 30.23 518.01 9.93 509.4 1.33 489.11 1.33" style="fill:#dbdbdb;"></polygon><path d="M498,15.78c0,3.07,2.49,5.56,5.56,5.56s5.56-2.49,5.56-5.56-2.49-5.56-5.56-5.56-5.56,2.49-5.56,5.56Z" style="fill:#a6a6a6;"></path></g><g><polygon points="489.11 251.19 489.11 228.74 495.56 222.29 518.01 222.29 518.01 242.58 509.4 251.19 489.11 251.19" style="fill:#dbdbdb;"></polygon><path d="M498,236.74c0-3.07,2.49-5.56,5.56-5.56s5.56,2.49,5.56,5.56-2.49,5.56-5.56,5.56-5.56-2.49-5.56-5.56Z" style="fill:#a6a6a6;"></path></g><g><polygon points="366.29 251.19 366.29 228.74 359.83 222.29 337.39 222.29 337.39 242.58 345.99 251.19 366.29 251.19" style="fill:#dbdbdb;"></polygon><path d="M357.39,236.74c0-3.07-2.49-5.56-5.56-5.56s-5.56,2.49-5.56,5.56,2.49,5.56,5.56,5.56,5.56-2.49,5.56-5.56Z" style="fill:#a6a6a6;"></path></g><circle cx="427.7" cy="101.63" r="34.17" style="fill:#a6a6a6;"></circle><circle cx="427.7" cy="101.63" r="28.22" transform="translate(53.4 332.19) rotate(-45)" style="fill:#c7c7c7;"></circle><g><circle cx="427.7" cy="101.63" r="9.37" style="fill:#a6a6a6;"></circle><path d="M431.49,83.87c0,3.38-1.7,6.11-3.8,6.11s-3.8-2.74-3.8-6.11,1.7-6.11,3.8-6.11,3.8,2.74,3.8,6.11Z" style="fill:#a6a6a6;"></path><path d="M414.21,89.46c2.92,1.69,4.44,4.53,3.39,6.35-1.05,1.82-4.27,1.92-7.19,.23-2.92-1.69-4.44-4.53-3.39-6.35s4.27-1.92,7.19-.23Z" style="fill:#a6a6a6;"></path><path d="M410.41,107.23c2.92-1.69,6.14-1.58,7.19,.23,1.05,1.82-.47,4.66-3.39,6.35-2.92,1.69-6.14,1.58-7.19-.23-1.05-1.82,.47-4.66,3.39-6.35Z" style="fill:#a6a6a6;"></path><path d="M423.9,119.4c0-3.38,1.7-6.11,3.8-6.11s3.8,2.74,3.8,6.11-1.7,6.11-3.8,6.11-3.8-2.74-3.8-6.11Z" style="fill:#a6a6a6;"></path><path d="M441.18,113.81c-2.92-1.69-4.44-4.53-3.39-6.35,1.05-1.82,4.27-1.92,7.19-.23,2.92,1.69,4.44,4.53,3.39,6.35-1.05,1.82-4.27,1.92-7.19,.23Z" style="fill:#a6a6a6;"></path><path d="M444.98,96.04c-2.92,1.69-6.14,1.58-7.19-.23-1.05-1.82,.47-4.66,3.39-6.35s6.14-1.58,7.19,.23-.47,4.66-3.39,6.35Z" style="fill:#a6a6a6;"></path></g><polygon points="435.98 193.83 435.98 220.22 386.31 220.22 367.01 200.92 367.01 165.53 370.43 162.11 399.5 193.83 435.98 193.83" style="fill:#dbdbdb;"></polygon><path d="M461.76,130.45c-15.48,9.04-56.29,33.51-71.12,48.84-7.24,7.48-7.04,19.42,.44,26.65,7.48,7.24,19.42,7.04,26.65-.44,14.83-15.33,38.15-56.69,46.75-72.41,.97-1.75-.99-3.67-2.73-2.65Zm-58.4,71.73c-5.02,0-9.08-4.07-9.08-9.09s4.06-9.08,9.08-9.08,9.08,4.07,9.08,9.08-4.06,9.09-9.08,9.09Zm37.75-46.83c-3.16,5.78-11.73,20.99-17.18,26.61-2.66,2.75-7.04,2.82-9.79,.16-2.75-2.66-2.82-7.05-.16-9.8,5.45-5.63,20.45-14.63,26.14-17.94,.64-.37,1.36,.33,1,.97Z" style="fill:#c7c7c7;"></path><path d="M412.45,193.09c0,5.02-4.06,9.09-9.08,9.09s-9.08-4.07-9.08-9.09,4.06-9.08,9.08-9.08,9.08,4.07,9.08,9.08Z" style="fill:#a6a6a6;"></path></g><g><g><polygon points="637.23 251.19 473.82 251.19 465.21 242.58 465.21 9.93 473.82 1.32 637.23 1.32 645.84 9.93 645.84 242.58 637.23 251.19" style="fill:#FFC727;"></polygon><polygon points="637.23 251.19 473.82 251.19 465.21 242.58 465.21 9.93 473.82 1.32 637.23 1.32 645.84 9.93 645.84 242.58 637.23 251.19" style="opacity: .2;"></polygon><rect x="465.21" y="58.98" width="180.63" height="7.93" style="opacity: .2;"></rect><g><path d="M635.36,20.79c0,3.5-2.84,6.34-6.34,6.34s-6.34-2.84-6.34-6.34,2.84-6.34,6.34-6.34,6.34,2.84,6.34,6.34Z" style="opacity: .1;"></path><circle cx="629.02" cy="20.79" r="3.38" style="fill:#FFC727;"></circle><path d="M630.08,20.79c0,.59-.48,1.06-1.06,1.06s-1.06-.48-1.06-1.06,.48-1.06,1.06-1.06,1.06,.48,1.06,1.06Z" style="fill:#fff; opacity: .6;"></path></g><rect x="480.57" y="81.7" width="3.7" height="149.48" style="fill:#FFC727;"></rect><rect x="626.78" y="81.7" width="3.7" height="149.48" style="fill:#FFC727;"></rect><rect x="515.95" y="218.2" width="79.16" height="12.99" style="fill:#FFC727; opacity: .5;"></rect></g><g><rect x="527.42" y="251.19" width="56.22" height="11.01" style="fill:#37474f;"></rect><g><rect x="532.23" y="262.19" width="46.59" height="5.35" style="fill:#37474f;"></rect><polygon points="578.82 262.19 532.23 262.19 532.23 264.87 578.82 263.53 578.82 262.19" style="fill:#263238;"></polygon></g><g><path d="M555.53,267.54v58.85c0,3.88-3.14,7.02-7.02,7.02h-41.53" style="fill: none; stroke: #263238; stroke-miterlimit: 10; stroke-width: 6px;"></path><g><polygon points="497.62 344.05 492.96 346.11 459.03 346.11 459.03 320.73 492.96 320.73 497.62 322.79 497.62 344.05" style="fill:#263238;"></polygon><polygon points="492.96 320.73 497.62 322.79 497.62 344.05 492.96 346.11 492.96 320.73" style="fill:#37474f;"></polygon></g><rect x="497.62" y="324.84" width="9.36" height="17.17" style="fill:#263238;"></rect><g><path d="M485.41,331.69c.93,0,1.68,.75,1.68,1.68s-.75,1.68-1.68,1.68-1.68-.75-1.68-1.68,.75-1.68,1.68-1.68Z" style="fill:#fff;"></path><path d="M475.37,336.11c.82,0,1.49,.67,1.49,1.49s-.67,1.49-1.49,1.49-1.49-.67-1.49-1.49,.67-1.49,1.49-1.49Z" style="fill:#fff;"></path><rect x="470.69" y="333.04" width="14.72" height=".65" style="fill:#fff;"></rect><polygon points="484.31 333.63 480.01 337.93 476.55 337.93 476.55 337.28 479.74 337.28 483.85 333.16 484.31 333.63" style="fill:#fff;"></polygon><polygon points="481.28 333.16 480.82 333.62 476.62 329.42 473.88 329.42 473.88 328.77 476.89 328.77 481.28 333.16" style="fill:#fff;"></polygon><rect x="471.52" y="327.75" width="2.73" height="2.73" transform="translate(143.77 802) rotate(-90)" style="fill:#fff;"></rect><polygon points="470.75 331.42 470.75 335.32 466.47 333.37 470.75 331.42" style="fill:#fff;"></polygon></g></g></g></g></g></g><g id="freepik--Plant--inject-445"><g><g><g><path d="M600.43,380.47s8.17-29.33,14.7-39.29c6.53-9.96,18.69-20.9,18.69-20.9,0,0-.29,45.22-33.39,60.2Z" style="fill:#FFC727;"></path><path d="M601.02,379.97c2.8-4.55,5.18-9.35,7.45-14.21,1.01-5.21,2.23-10.45,4.06-15.42,.03-.09,.17-.04,.14,.05-1.08,4.63-2.35,9.23-3.49,13.85,3.3-7.14,6.43-14.37,10.36-21.12,.79-3.27,2.3-6.42,3.79-9.39,.04-.09,.19-.04,.14,.05-1.05,2.3-1.8,4.66-2.55,7.04,1.86-2.99,3.89-5.87,6.21-8.58,.14-.17,.43,.02,.29,.2-5.25,6.7-8.88,14.33-12.33,22.06,3.73-3.99,7.13-8.36,10.25-12.82,.03-.05,.1,0,.07,.05-3.23,5.13-6.95,9.74-10.98,14.24-2.52,5.66-4.99,11.34-7.99,16.72,5.99-5.06,10.6-11.62,15.16-17.94,.1-.14,.32,0,.23,.15-4.56,6.94-9.29,13.47-15.85,18.61-1.34,2.35-2.78,4.65-4.39,6.85-.27,.36-.81-.01-.58-.4Z" style="fill:#263238;"></path></g><g><path d="M597.9,383.11s14.69-27.05,10.42-53.27c-4.27-26.22-8.84-35.56-8.84-35.56,0,0-23.09,40.79-1.59,88.83Z" style="fill:#FFC727;"></path><g><path d="M591.87,340.59c1.17,7.57,3.23,14.66,5.67,21.84,.04-9.62,.22-19.25,.48-28.87-1.69-5.85-2.54-11.84-2.77-17.92,0-.18,.26-.17,.27,0,.43,5.23,1.35,10.34,2.57,15.42,.22-7.94,.49-15.88,.78-23.81,0-.13,.21-.13,.21,0-.01,12.4,0,24.8-.08,37.2,1.9-4.78,3.08-9.69,4.23-14.73,.01-.05,.09-.04,.09,.01-.44,5.79-2.2,11.39-4.34,16.77-.06,7.93-.14,15.85-.32,23.78,2.48-8.43,5.14-16.59,5.86-25.49,0-.12,.19-.12,.19,0-.19,9.82-2.73,19.79-5.97,29.02-.04,.1-.1,.17-.16,.23-.07,2.9-.16,5.79-.25,8.69-.01,.42-.64,.4-.64-.01-.11-5.93-.15-11.85-.14-17.78-3.3-7.62-5.06-16.11-5.79-24.34,0-.07,.12-.09,.13-.02Z" style="fill:#263238;"></path><path d="M592.88,336.41c.47,2.32,.9,4.78,1.03,7.15,0,.08-.12,.09-.14,.02-.61-2.29-.94-4.77-1.21-7.12-.02-.18,.29-.22,.32-.04Z" style="fill:#263238;"></path><path d="M601.47,316.64c.01-.08,.14-.06,.14,.02,.02,1.63-.31,3.37-.74,4.93-.04,.13-.22,.07-.2-.06,.32-1.63,.52-3.26,.8-4.89Z" style="fill:#263238;"></path></g></g><g><path d="M592.54,385.18s.6-28.23-7.5-42.27c-8.1-14.03-21.53-21.18-21.53-21.18,0,0,5.42,49.77,29.03,63.45Z" style="fill:#FFC727;"></path><g><path d="M577.78,361.04c3.41,4.9,6.79,9.63,10.96,13.89-1.62-5.77-3.49-11.45-5.61-17.03-4.54-3.98-9.04-8.11-11.83-13.55-.04-.09,.08-.16,.13-.08,2.99,4.82,7,8.69,11.21,12.4-3.23-8.39-7-16.57-11.27-24.55-.11-.2,.19-.38,.31-.18,2.59,4.16,4.95,8.47,7.07,12.89-.76-3.02-1.37-6.1-2.14-9.1-.02-.08,.1-.11,.13-.04,1.44,3.77,2.87,7.94,3.33,11.97,2.83,6.26,5.22,12.72,7.13,19.32-.21-4.23-.47-8.45-.91-12.67,0-.08,.13-.1,.14-.02,.88,4.69,1.34,9.45,1.23,14.22,1.17,4.21,2.15,8.46,2.94,12.75,.02,.11-.15,.17-.18,.05-.44-1.8-.92-3.58-1.4-5.36-.03-.01-.06,0-.09-.04-4.34-4.35-8.47-9.31-11.18-14.86-.01-.03,.03-.05,.04-.03Z" style="fill:#263238;"></path><path d="M568.4,338.07c.9,.97,1.73,2,2.6,3,.77,.89,1.71,1.72,2.33,2.72,.02,.04-.02,.09-.06,.06-1.04-.66-1.88-1.73-2.69-2.66-.86-.97-1.62-1.93-2.31-3.03-.05-.08,.06-.17,.13-.1Z" style="fill:#263238;"></path></g></g></g><g><g><path d="M616.61,381.74l-1.02,9.05-3.08,27.36h-26.83l-3.08-27.36-1.02-9.05h35.03Z" style="fill:#455a64;"></path><path d="M616.61,381.74l-1.02,9.05h-32.98l-1.02-9.05h35.03Z" style="fill:#37474f;"></path></g><rect x="579.2" y="375.18" width="39.79" height="10.25" transform="translate(1198.18 760.6) rotate(180)" style="fill:#455a64;"></rect></g></g></g><g id="freepik--Character--inject-445"><g><g><g><g><rect x="215.59" y="93.95" width="44.67" height="61.62" transform="translate(83.51 344.61) rotate(-82.59)" style="fill:#FFC727;"></rect><polygon points="232.43 96.86 210.84 94.05 210.25 98.64 233.08 101.61 232.43 96.86" style="fill:#FFC727;"></polygon></g><rect x="212.48" y="97.26" width="17.81" height="2.69" transform="translate(14.57 -27.73) rotate(7.41)" style="fill:#fff;"></rect></g><g><polygon points="265.59 150.88 204.49 142.94 209.45 101.33 270.55 109.28 265.59 150.88" style="fill:#FFC727;"></polygon><polygon points="265.59 150.88 204.49 142.94 209.45 101.33 270.55 109.28 265.59 150.88" style="fill:#fff; opacity: .4;"></polygon><polygon points="231.54 99.93 209.95 97.12 209.45 101.33 232.28 104.3 231.54 99.93" style="fill:#FFC727;"></polygon><polygon points="231.54 99.93 209.95 97.12 209.45 101.33 232.28 104.3 231.54 99.93" style="fill:#fff; opacity: .4;"></polygon></g></g><g><g><g><path d="M92.56,314.61s-27.57,40.72-27.58,40.75c-3.79,8.42-6.97,15.88-8.25,19.88,0,.02-.02,.04-.02,.07-.49,1.51-.7,2.52-.55,2.88,.01,.03,.01,.06,.03,.08,1.74,2.83,68.17,35.11,70.87,35.46,2.7,.36,3.89-7.31,2.32-10.62-1.6-3.32-21.49-27.05-21.49-27.05l23.19-41.93-38.5-19.51Z" style="fill:#ad6359;"></path><path d="M125.98,413.49c-2.69-.35-68.07-32.39-69.8-35.21-.02-.03-.02-.05-.03-.08-.15-.36,.07-1.38,.55-2.88,0-.03,.01-.04,.03-.06,1.28-4.01,4.46-11.46,8.25-19.89,0-.01,3.98-7.3,5.57-9.83l42.25,21.84-4.92,8.69s18.84,23.49,20.43,26.8c1.59,3.31,.39,10.98-2.31,10.63Z" style="fill:#ebebeb;"></path><g><path d="M127.2,412.58c-2.71-.41-68.9-34.51-70.59-37.41-.66-1.09,3.74-11.02,9.41-22.87l.18-.37,42.95,21.52-.39,.72s19.5,24.38,21.02,27.77c1.51,3.37,.13,11.07-2.58,10.65Z" style="fill:#FFC727;"></path><g><path d="M127.77,409.63c-11.02-6.02-56.02-29.27-67.36-34.39-.09-.04-.12,.02-.04,.07,10.79,6.21,55.98,29.09,67.31,34.5,.24,.11,.33-.06,.09-.18Z" style="fill:#fff;"></path><path d="M112.28,376.15c-3.97-3.08-9.69-5.17-14.65-3.77-.19,.05-.11,.33,.05,.36,5.04,.87,9.53,2.07,14.3,3.96,.34,.13,.59-.32,.3-.55Z" style="fill:#263238;"></path><path d="M114.46,379.69c-3.97-3.08-9.69-5.17-14.65-3.77-.19,.05-.11,.33,.05,.36,5.04,.87,9.53,2.07,14.3,3.96,.34,.13,.59-.32,.3-.55Z" style="fill:#263238;"></path><path d="M116.65,383.23c-3.97-3.08-9.69-5.17-14.65-3.77-.19,.05-.11,.33,.05,.35,5.04,.87,9.53,2.07,14.3,3.96,.34,.13,.59-.32,.3-.55Z" style="fill:#263238;"></path></g><path d="M73.31,364.97c-3.56-4.87-11.14,.66-7.57,5.54,3.56,4.87,11.14-.66,7.57-5.54Z" style="fill:#fff;"></path><path d="M111.67,377.83l4.76,29.72c5.99,2.98,10.13,4.94,10.77,5.04,2.71,.42,4.1-7.28,2.59-10.65-1.16-2.56-12.62-17.17-18.12-24.11Z" style="opacity: .1;"></path><path d="M129.43,410.73c.95,1.07-1.36,4.91-2.38,4.79-1.02-.12-73.02-37.62-74.11-38.53-1.09-.91,1.63-5.08,3.17-4.57,1.54,.51,73.31,38.3,73.31,38.3Z" style="fill:#263238;"></path></g></g><g><path d="M70.44,341.62l47.61,25.42s60.09-80.36,61.29-102.86c1.66-31.07-24.87-129.72-24.87-129.72l-42.32-.29s17.2,101.45,15.8,118.76c-.73,9.06-57.51,88.69-57.51,88.69Z" style="fill:#37474f;"></path><g><path d="M122.2,357.2c-2.45-1.77-25.02-14.84-42.2-23.19-.12-.06-.19,.11-.09,.17,5.21,3.44,38.89,21.89,42.16,23.2,.11,.04,.24-.1,.13-.18Z" style="fill:#263238;"></path><path d="M133.83,231.26c-1.97-14.84-4.13-29.67-6.6-44.44-2.48-14.84-5.09-29.67-8.19-44.39-.38-1.8-.78-3.59-1.17-5.39-.06-.28-.48-.2-.43,.08,2.61,14.6,5.29,29.2,7.69,43.84,2.4,14.64,4.64,29.31,6.65,44.01,.5,3.64,.98,7.28,1.45,10.92,.49,3.76,1.04,7.54,1.08,11.34,.04,3.65-.53,7.2-1.81,10.62-1.26,3.36-3.06,6.47-4.88,9.55-7.66,12.95-41.94,64.28-42.83,65.93-.06,.11,.09,.22,.16,.11,8.23-12.77,33.75-48.27,41.52-61.44,3.5-5.94,7.52-11.95,8.66-18.88,1.19-7.2-.35-14.73-1.29-21.88Z" style="fill:#263238;"></path></g></g></g><g><g><path d="M122.39,342.4s-.48,48.28-.48,48.32c.26,9.23,.64,17.33,1.24,21.49,0,.02,0,.04,.01,.07,.22,1.57,.47,2.57,.76,2.83,.02,.02,.03,.05,.06,.06,2.8,1.79,76.66,1.9,79.24,1.03,2.59-.85,.32-8.28-2.54-10.57-2.89-2.29-31.13-14.98-31.13-14.98l.02-48.25h-47.16Z" style="fill:#ad6359;"></path><path d="M122.01,380.81s-.1,9.88-.1,9.91c.26,9.23,.64,17.33,1.24,21.49,0,.02,0,.04,.01,.07,.31,1.55,.58,2.57,.76,2.83,.02,.02,.03,.05,.06,.06,2.8,1.79,76.66,1.9,79.24,1.03,2.59-.85,.32-8.28-2.54-10.57-2.89-2.29-31.13-14.98-31.13-14.98v-10.06l-47.52,.22Z" style="fill:#ebebeb;"></path><g><path d="M203.25,416.11c-2.62,.83-77.06-.48-79.86-2.33-1.08-.68-1.52-11.54-1.67-24.68,0-.14,0-.27,0-.41l48.04,.31-.03,.82s28.27,13.25,31.14,15.61c2.84,2.35,5.01,9.87,2.39,10.69Z" style="fill:#FFC727;"></path><g><path d="M202.46,413.21c-12.54-.53-63.19-1.48-75.62-1.05-.1,0-.1,.07,0,.08,12.42,.8,63.07,1.33,75.62,1.17,.26,0,.27-.19,0-.21Z" style="fill:#fff;"></path><path d="M173.75,390.03c-4.92-1.01-10.97-.36-14.81,3.1-.15,.13,.04,.34,.2,.3,4.9-1.45,9.47-2.36,14.58-2.77,.36-.03,.38-.55,.03-.62Z" style="fill:#263238;"></path><path d="M177.28,392.24c-4.92-1.01-10.97-.36-14.81,3.1-.15,.13,.04,.34,.2,.3,4.9-1.45,9.47-2.36,14.58-2.77,.36-.03,.38-.55,.03-.62Z" style="fill:#263238;"></path><path d="M180.8,394.45c-4.92-1.01-10.98-.36-14.81,3.1-.15,.13,.04,.34,.2,.3,4.9-1.45,9.47-2.36,14.57-2.77,.36-.03,.38-.55,.03-.62Z" style="fill:#263238;"></path></g><path d="M204.43,413.47c1.32,.54,.96,5.01-.01,5.35-.97,.34-82.13-1.44-83.5-1.78-1.37-.33-.78-5.27,.83-5.5,1.61-.23,82.69,1.93,82.69,1.93Z" style="fill:#263238;"></path><path d="M133.86,397.25c-5.35-2.79-9.7,5.52-4.34,8.31,5.35,2.79,9.7-5.52,4.34-8.31Z" style="fill:#fff;"></path></g></g><g><path d="M154.69,135.15s0,.01-.02,.04c-.28,.87-15.49,42.55-16.92,43.21-1.62,.75,33.6,59.91,35.68,87.39,1.33,17.58-1.28,111.78-1.28,111.78h-51.49s2.47-84.16,3.65-112.5c.46-10.99-35.35-65.7-35.79-99.77-.14-10.74,7.58-30.36,7.58-30.36l58.59,.19Z" style="fill:#37474f;"></path><g><path d="M124.61,264.31c0-.45-.36-.6-.39-.14-1.16,15.34-1.43,25.31-2.17,40.68-.73,15.32-.31,19.01-1,34.33-.39,8.67-.02,17.36-.22,26.03,0,.13,.2,.15,.21,.02,1.6-15.29,3.56-92.23,3.57-100.92Z" style="fill:#263238;"></path><path d="M173.43,266.4c-.11-3.78-.36-7.57-1.04-11.29-.66-3.64-1.82-7.17-3.18-10.6-2.85-7.17-6.21-14.17-9.42-21.18-3.26-7.11-6.58-14.18-10.01-21.2-1.93-3.95-3.87-7.89-5.83-11.82-1.98-3.98-4.11-7.89-6.18-11.82-.08-.16-.32-.04-.25,.12,3.3,7.09,6.56,14.19,9.86,21.28,3.3,7.09,6.54,14.2,9.78,21.31,3.19,7,6.38,14,9.39,21.07,1.44,3.39,2.79,6.83,3.67,10.42,.91,3.67,1.29,7.44,1.51,11.22,.5,8.8,.74,17.62,1.61,26.39,.01,.11,.19,.1,.19-.01,.26-7.94,.14-15.93-.1-23.88Z" style="fill:#263238;"></path><path d="M168.42,367.4c-3-.39-25.81-1.18-44.89-.36-.13,0-.12,.18,0,.2,6.22,.55,41.37,.79,44.86,.39,.12-.01,.16-.2,.02-.22Z" style="fill:#263238;"></path><g><path d="M144.87,176.09c-5.51,1.29-10.91,3.36-16.1,5.58-.2,.09-.11,.4,.11,.33,5.4-1.69,10.9-3.28,16.21-5.27,.42-.16,.21-.74-.22-.65Z" style="fill:#263238;"></path><path d="M150.06,140.79c0-.18-.31-.25-.32-.06-.59,6.15-1.53,11.52-2.64,17.21-.51,2.64-4.17,17.16-8.68,15.61-.76-.26-1.07-1.06-1.07-2.24,0-1.42,.7-3.09,1.08-4.46,.83-3.03,1.56-6.08,2.14-9.17,1.09-5.77,1.71-11.58,1.6-17.45,0-.19-.28-.21-.3-.01-.82,8.05-1.85,16.07-3.87,23.92-.97,3.77-3.49,9.35,.46,10.35,4.02,1.02,7.65-8.38,8.42-10.97,2.15-7.24,3.02-15.2,3.2-22.72Z" style="fill:#263238;"></path><path d="M138.5,173.96c-.52,.95-.96,1.94-1.35,2.95-.3,.78-.7,1.62-.69,2.47,0,.16,.21,.2,.31,.1,.61-.63,.94-1.55,1.32-2.33,.45-.91,.92-1.81,1.34-2.73,.28-.61-.61-1.04-.93-.45Z" style="fill:#263238;"></path></g><path d="M129.88,279.45c.26-7.32,1.08-15-1.32-22.06-1.19-3.5-3-6.75-4.7-10.02-1.79-3.44-3.54-6.9-5.26-10.38-6.88-13.9-13.36-28.01-19.15-42.4-2.79-6.93-5.28-14.04-6.28-21.47-1.04-7.78-.3-15.73,1.44-23.36,.43-1.91,.9-3.8,1.42-5.68,.04-.14-.17-.22-.21-.08-2.32,7.22-3.91,14.73-4.02,22.34-.1,7.33,1.51,14.45,3.88,21.35,2.47,7.19,5.56,14.17,8.6,21.13,3.14,7.17,6.39,14.29,9.78,21.35,3.37,7.02,6.96,13.93,10.52,20.85,1.72,3.35,3.29,6.79,3.95,10.52,.68,3.8,.57,7.68,.42,11.52-.61,16.2-2,64.82-2.21,80.97-.03,2.05-.05,4.1-.07,6.15,0,.18,.27,.21,.28,.02,1.02-16.11,2.34-64.61,2.92-80.76Z" style="fill:#263238;"></path><path d="M118.33,145.64c0-.12-.18-.09-.19,.01-.61,4.46-.95,9.08-3.11,13.12-1.97,3.71-5.42,6.1-9.17,7.78-2.17,.97-4.43,1.73-6.68,2.47-.16,.05-.13,.31,.05,.27,4.26-.88,8.59-1.88,12.29-4.27,3.96-2.56,6-6.66,6.65-11.25,.38-2.7,.34-5.42,.16-8.13Z" style="fill:#263238;"></path></g></g></g></g><g><g><path d="M91.77,142.42c.12,.19,68.71,12.8,69.39,12.22,.25-.21,.82-5.27,.82-5.27,0,0,2.71-4.49,1.62-12.9-2.29-17.77-5.79-61.96-8.71-66-2.56-3.53-10.4-6.14-15.8-3.93-11.32,4.64-38.77,49.41-44.36,59.31-2.76,4.88-1.51,8.72-1.25,11.23,0,0-1.87,5.1-1.71,5.34Z" style="fill:#FFC727;"></path><path d="M158.37,148.7c-2.02-.44-4.09-.68-6.13-1.04-1.95-.35-3.88-.78-5.83-1.11-4-.69-8-1.34-11.99-2.02-7.99-1.37-15.97-2.81-23.96-4.23-2.23-.4-4.46-.8-6.68-1.2-2.32-.42-4.67-.7-6.99-1.11-.11-.02-.15,.14-.04,.17,2.03,.44,4.03,1.01,6.06,1.42,1.94,.39,3.88,.78,5.82,1.17,3.98,.79,7.96,1.53,11.95,2.26,7.98,1.45,15.97,2.83,23.98,4.08,2.24,.35,4.49,.63,6.74,.9,2.34,.28,4.67,.75,7.01,.96,.16,.01,.22-.2,.05-.24Z" style="fill:#263238;"></path></g><g><g><path d="M149.19,82.26c-3.82-.4-8.61-8.62-9.48-13.82-.06-.36,1.5-3.35,3.23-7.09,1.04-2.27,2.14-4.82,2.98-7.22l13.78,8.91s-3.23,4.51-4.67,8.71c-.12,.35-.19,.69-.24,1.02-.01,.05-.02,.11-.03,.17-.35,1.98-1.86,9.7-5.56,9.32Z" style="fill:#ad6359;"></path><path d="M154.77,72.77s-.02,.1-.03,.16c-.5-.09-1.02-.25-1.58-.45-8.64-3.24-6.97-14.61-6.33-17.75l3.44,2.22,9.4,6.08s-3.24,4.51-4.66,8.71c-.12,.35-.2,.68-.25,1.02Z" style="fill:#263238;"></path></g><g><path d="M147.74,37.45c-2.7,5.26-2.65,21.86,.67,26.15,4.8,6.23,14.11,8.41,19.76,2.31,5.48-5.92,5.03-27.55,1.19-31.6-5.65-5.97-17.64-4.63-21.62,3.14Z" style="fill:#ad6359;"></path><g><g><path d="M161.69,50.72s-.09,.05-.09,.1c.03,1.12-.12,2.4-1.13,2.77-.03,.01-.03,.07,0,.06,1.23-.17,1.42-1.88,1.21-2.94Z" style="fill:#263238;"></path><path d="M160.7,49.55c-1.8-.14-1.95,3.47-.28,3.6,1.64,.13,1.79-3.48,.28-3.6Z" style="fill:#263238;"></path></g><g><path d="M168.04,50.77s.09,.06,.08,.1c-.08,1.12,.01,2.41,1.01,2.82,.03,.01,.03,.07-.01,.06-1.23-.22-1.34-1.94-1.08-2.98Z" style="fill:#263238;"></path><path d="M169.09,49.65c1.8-.06,1.8,3.55,.13,3.6-1.64,.06-1.64-3.55-.13-3.6Z" style="fill:#263238;"></path></g><path d="M159.44,47.39c.51-.04,.96-.17,1.46-.26,.56-.11,1.01-.13,1.44-.55,.23-.22,.22-.69,.03-.93-.46-.56-1.17-.6-1.85-.5-.74,.11-1.27,.38-1.77,.93-.48,.53,.04,1.37,.7,1.31Z" style="fill:#263238;"></path><path d="M170.69,47.23c-.5-.1-.94-.28-1.42-.43-.54-.17-.99-.25-1.36-.71-.2-.25-.14-.71,.08-.93,.52-.5,1.24-.46,1.9-.28,.72,.19,1.22,.53,1.65,1.13,.42,.58-.2,1.36-.85,1.22Z" style="fill:#263238;"></path><path d="M159.82,60.61c.26,.27,.51,.64,.91,.69,.39,.05,.85-.11,1.21-.23,.04-.01,.07,.03,.05,.06-.31,.42-.93,.66-1.44,.55-.5-.11-.73-.56-.84-1.02-.01-.07,.07-.09,.11-.05Z" style="fill:#263238;"></path><path d="M161.13,57.31c.59,1,1.48,1.56,2.47,1.8,.44,.11,.91,.14,1.37,.12,.09,0,.18,0,.26-.02,.08,0,.16-.01,.25-.03,.13-.01,.21-.12,.23-.24h0s0-.08,0-.12h0v-.11c.06-.86,.03-2.17,.03-2.17,.31,.17,1.88,.96,1.87,.51-.07-3.73-.15-7.88-1.01-11.57-.02-.12-.21-.1-.21,.02-.07,3.59,.48,7.16,.47,10.77-.5-.22-1.32-.61-1.77-.62-.12,.03,.1,2.53,.05,2.92,0,0,0,.02,0,.04-1.45,.13-2.52-.36-3.89-1.38-.08-.07-.17,0-.11,.1Z" style="fill:#263238;"></path></g><g><path d="M145.68,49.17c1.13-.17,3.84-3.95,4.99-5.45,1.21-1.56,1.87-9.59,1.98-11.42-1.97,1.12-3.64,2.72-4.75,4.8-1.3,2.4-2.06,7.15-2.22,12.08Z" style="fill:#263238; opacity: .2;"></path><g><path d="M166.53,39.07c-1.37,1.46-3.39,2.16-5.36,1.76-1.92-.39-3.79-1.8-4.41-3.7-.02-.06-.11-.03-.09,.03,.66,2.03,2.23,3.75,4.4,4.13,2.04,.36,4.28-.5,5.57-2.12,.06-.07-.04-.16-.11-.1Z" style="fill:#263238;"></path><path d="M161.09,24.54c-3.36-.06-6.51,1.68-7.83,3.92-.8,1.36-.97,2.77-.8,4.21,0,.06,.13,.05,.12,0-.1-2.28,1.12-4.82,3.61-6.32,2.4-1.43,5.52-1.78,8.17-.66,1.38,.59,2.48,1.52,3.03,2.63,.06,.12,.32,.05,.27-.07-.83-2.13-3.54-3.65-6.58-3.7Z" style="fill:#263238;"></path><path d="M180.29,32.57c-.47-1.67-1.56-3.13-3-4.1-2.01-1.35-4.34-1.26-6.66-1.11-.06,0-.06,.1,0,.1,1.97-.12,3.98-.12,5.76,.87,1.44,.81,2.63,2.12,3.23,3.67,1.24,3.22-.2,7.11-3.28,8.69-1.74,.9-3.86,1.03-5.7,.36-.07-.03-.13,.08-.06,.11,3.36,1.33,7.43-.07,9.1-3.31,.83-1.6,1.09-3.53,.61-5.28Z" style="fill:#263238;"></path><path d="M146.66,40.38s-2.93-6.14-.12-9.5c1.59-1.9,6.59-1.43,6.59-1.43,0,0,1.74-2.81,5.93-3.58,4.23-.78,9.11,1.89,9.11,1.89,0,0,4.08-2.11,7.71,.19,5.07,3.2,4.08,11.09-1.27,13.4-3.75,1.63-8.6-1.84-8.6-1.84-.48,.04-5.52,2.79-9.05-1.75,0,0-3.14,2.55-5.76,.55,0,0-1.49,2.66-4.55,2.07Z" style="fill:#263238;"></path></g></g><g><path d="M148.82,51.16s-2.82-5.79-5.39-4.87c-2.57,.92-1.03,8.92,1.58,10.4,2.61,1.48,4.03-.92,4.03-.92l-.22-4.61Z" style="fill:#ad6359;"></path><path d="M143.93,48.57s-.06,.05-.03,.07c1.82,1.1,2.56,3.07,2.98,5.06-.46-.81-1.19-1.33-2.27-.8-.06,.03-.02,.12,.04,.11,.83-.04,1.38,.19,1.82,.91,.31,.51,.48,1.13,.67,1.69,.06,.19,.39,.15,.36-.07v-.05c.44-2.48-.94-6.26-3.57-6.93Z" style="fill:#263238;"></path></g></g></g><g><g><path d="M132.22,84.01c-.16,19.44,4.27,50.03,9.39,53.46,12.83,8.61,34.71,13.11,43.97,13.48,5.4,.22,7.95-28.25,3.16-28.68-7.56-.68-29.02-5.46-31.7-6.21-1.43-.4-8.19-20.1-13.78-32.54-6.07-13.53-10.97-8.99-11.05,.49Z" style="fill:#ad6359;"></path><g><path d="M182,123.94s8.79-7.07,14.56-9.36c7.73-3.06,15.66-2.52,18.97-2.1,6.91,.89,23,7.81,21.81,12.8-1.07,4.51-17.16-3.4-17.16-3.4,0,0,17.74,5.36,15.44,10.55-2.29,5.19-20.45-5.05-20.45-5.05,0,0,18.1,5.91,14.89,10.89-2.43,3.76-19.39-4.59-19.39-4.59,0,0,15.52,5.19,13.19,9.17-2.57,4.4-18.72-2.33-18.72-2.33-7.62,9.12-15.16,10.17-20.5,10.42-1.29,.06-2.65-27-2.65-27Z" style="fill:#ad6359;"></path><g><path d="M214.17,119.63c2.11,.55,4.24,1.1,6.29,1.84,2.05,.74,4.08,1.55,6.05,2.48,4.84,2.27,7.51,4.45,7.33,4.34-4.25-2.76-11.55-5.52-13.6-6.26-2.05-.74-4.05-1.58-6.1-2.32-.05-.02-.02-.09,.03-.08Z" style="fill:#263238;"></path><path d="M211.36,126.98c2.66,.82,5.33,1.54,7.95,2.49,2.61,.94,5,2.05,7.54,3.17,.2,.09,.09,.16-.11,.08-2.58-1.01-5.05-1.75-7.64-2.73-2.58-.98-5.15-2.06-7.77-2.95-.04-.01-.02-.07,.02-.06Z" style="fill:#263238;"></path><path d="M207.82,132.86c4.13,1.05,8.06,2.86,11.87,4.73,.19,.09,.04,.18-.16,.09-3.92-1.65-6.98-2.97-11.74-4.68-.07-.03-.05-.17,.04-.14Z" style="fill:#263238;"></path></g></g></g><g><path d="M180.8,154.97l4.74-34.95-27.49-4.94c-4.02-10.48-12.07-31.42-15.94-38.25-4.54-8.01-10.4-5.38-11.08,3.97-1.56,21.39,4.09,55.68,7.33,59.95,4.64,6.13,42.44,14.21,42.44,14.21Z" style="fill:#FFC727;"></path><g><path d="M175.68,149.87c-.11-2.21,.96-11.28,1.25-13.53,.28-2.21,1.76-11.26,2.07-13.58,.02-.13,.2-.14,.19-.01-.26,2.3-1.03,11.43-1.3,13.69-.27,2.26-1.44,11.29-2.08,13.44-.02,.07-.12,.06-.12,0Z" style="fill:#263238;"></path><g><path d="M159.72,150.12c-2.96-.85-5.9-1.78-8.81-2.8-4.29-1.66-8.95-2.95-12.47-6.09-2.68-3.9-3.18-8.76-4.15-13.26-1.1-6.08-1.76-12.22-2.36-18.35-.55-6.14-.95-12.29-1.16-18.45,1.13,12.26,2.23,24.54,4.2,36.68,.92,4.39,1.37,9.26,3.81,13.07,3.38,3.05,8.03,4.47,12.19,6.2,2.88,1.08,5.8,2.08,8.74,3h0Z" style="fill:#263238;"></path><path d="M131.08,96.44c-.48-1.06-.89-2.2-.85-3.38,.29,1.11,.69,2.23,.85,3.38h0Z" style="fill:#263238;"></path></g><g><path d="M148.03,90.26c3.52,7.54,6.25,16.28,9.67,23.72,4.77,1.26,9.68,2.07,14.51,3.14,4.45,.92,8.91,1.85,13.35,2.81v.03l-.15,.94,.07-.95,.03,.04c-8.96-1.5-17.88-3.07-26.77-5-.44-.14-1.19-.19-1.56-.51-.98-1.57-1.5-3.33-2.2-5.03-2.29-5.89-4.76-13.31-6.95-19.2h0Z" style="fill:#263238;"></path><path d="M149.21,91.04c.38,1.19,.67,2.45,.51,3.71-.17-1.22-.47-2.47-.51-3.71h0Z" style="fill:#263238;"></path></g></g></g></g></g></g></g></svg>
